<svg width="468" height="468" viewBox="0 0 468 468" fill="none" xmlns="http://www.w3.org/2000/svg">
<path fill-rule="evenodd" clip-rule="evenodd" d="M10.4297 10.4296C23.4474 -2.58771 44.5527 -2.58771 57.5703 10.4296L234 186.86L410.43 10.4296C423.447 -2.58771 444.553 -2.58771 457.57 10.4296C470.587 23.4473 470.587 44.5526 457.57 57.5703L281.14 234L457.57 410.43C470.587 423.447 470.587 444.553 457.57 457.57C444.553 470.587 423.447 470.587 410.43 457.57L234 281.14L57.5703 457.57C44.5527 470.587 23.4474 470.587 10.4297 457.57C-2.58765 444.553 -2.58765 423.447 10.4297 410.43L186.86 234L10.4297 57.5703C-2.58765 44.5526 -2.58765 23.4473 10.4297 10.4296Z" fill="white"/>
</svg>
