<svg width="518" height="766" viewBox="0 0 518 766" fill="none" xmlns="http://www.w3.org/2000/svg">
<path d="M259 0.529419C116.318 0.529419 0.176514 116.624 0.176514 259.353C0.176514 465.141 231.376 733.988 241.212 745.376L259 765.847L276.788 745.329C286.624 733.988 517.824 465.141 517.824 259.353C517.824 116.624 401.682 0.529419 259 0.529419ZM259 693C205.071 625.988 47.2353 416.341 47.2353 259.353C47.2353 142.6 142.247 47.5882 259 47.5882C375.753 47.5882 470.765 142.6 470.765 259.353C470.765 416.2 312.929 625.988 259 693ZM259 124.718C181.165 124.718 117.824 188.059 117.824 265.894C117.824 343.729 181.165 407.071 259 407.071C336.835 407.071 400.177 343.729 400.177 265.894C400.177 188.059 336.835 124.718 259 124.718ZM259 360.012C207.094 360.012 164.882 317.8 164.882 265.894C164.882 213.988 207.094 171.776 259 171.776C310.906 171.776 353.118 213.988 353.118 265.894C353.118 317.8 310.906 360.012 259 360.012Z" fill="#283A8D"/>
</svg>
